<?xml version="1.0" encoding="utf-8"?>
<!-- Generator: Adobe Illustrator 19.0.0, SVG Export Plug-In . SVG Version: 6.00 Build 0)  -->
<svg version="1.1" id="Layer_1" xmlns="http://www.w3.org/2000/svg" xmlns:xlink="http://www.w3.org/1999/xlink" x="0px" y="0px"
	 viewBox="461 -118 1921.4 834" style="enable-background:new 461 -118 1921.4 834;" xml:space="preserve">
<style type="text/css">
	.st0{fill:#FFFFFF;}
	.st1{opacity:0.9;fill:#14192B;enable-background:new    ;}
	.st2{opacity:0.8;fill:#14192B;enable-background:new    ;}
	.st3{opacity:0.7;fill:#14192B;enable-background:new    ;}
	.st4{fill:#43586C;}
	.st5{fill:#E7F0ED;}
</style>
<g>
	<rect x="461" y="-118" class="st0" width="1921.4" height="736"/>
	<g id="XMLID_1565_">
		<g id="XMLID_1113_">
			<polygon id="XMLID_1524_" class="st1" points="2079.6,123.4 2070.6,123.4 772.8,123.4 763.8,123.4 698.4,123.4 698.4,266.3 
				763.8,266.3 772.8,266.3 2070.6,266.3 2079.6,266.3 2145,266.3 2145,123.4 			"/>
			<rect id="XMLID_1504_" x="618.2" y="123.4" class="st1" width="74.4" height="142.9"/>
			<rect id="XMLID_1502_" x="538" y="123.4" class="st2" width="74.4" height="142.9"/>
			<rect id="XMLID_1497_" x="457.9" y="123.4" class="st3" width="74.4" height="142.9"/>
			<rect id="XMLID_1478_" x="2311.1" y="123.4" class="st3" width="74.4" height="142.9"/>
			<rect id="XMLID_1470_" x="2230.9" y="123.4" class="st2" width="74.4" height="142.9"/>
			<rect id="XMLID_1265_" x="2150.7" y="123.4" class="st1" width="74.4" height="142.9"/>
		</g>
	</g>
	<g id="XMLID_1001_">
		<rect id="XMLID_1034_" x="453.8" y="576.3" class="st4" width="1935.8" height="139.5"/>
	</g>
</g>
<rect id="XMLID_1529_" x="458.7" y="400.3" class="st5" width="1925.9" height="193.1"/>
<g id="XMLID_1525_">
	<rect id="XMLID_1528_" x="458.7" y="549.4" class="st1" width="1925.9" height="88"/>
</g>
</svg>
