<?xml version="1.0" encoding="utf-8"?>
<!-- Generator: Adobe Illustrator 19.0.0, SVG Export Plug-In . SVG Version: 6.00 Build 0)  -->
<svg version="1.1" id="visual" xmlns="http://www.w3.org/2000/svg" xmlns:xlink="http://www.w3.org/1999/xlink" x="0px" y="0px"
	 viewBox="140 151 1280 200" style="enable-background:new 140 151 1280 200;" xml:space="preserve">
<style type="text/css">
	.st0{fill:#333960;}
	.st1{fill:#181F3F;}
	.st2{fill:#03080C;}
</style>
<path class="st0" d="M140,226l160,31l160-19l160-64l160,53l160,13l160-36l160,47h160v100h-160h-160H940H780H620H460H300H140V226z"/>
<path class="st1" d="M140,282l160-45l160-25l160,33l160,19l160-43l160,28l160-9l160-24v135h-160h-160H940H780H620H460H300H140V282z"
	/>
<path class="st2" d="M140,245l160,6l160-13l160,5l160,22l160,38l160-27l160-32l160,40v67h-160h-160H940H780H620H460H300H140V245z"/>
<path class="st2" d="M140,307l160-30l160,13l160,8l160-15l160,13l160-13l160-7l160,9v66h-160h-160H940H780H620H460H300H140V307z"/>
<path class="st2" d="M140,317l160-6l160,5l160,15l160,3l160-36l160,2l160,11l160,18v22h-160h-160H940H780H620H460H300H140V317z"/>
</svg>
