<svg id="visual" viewBox="0 0 1280 200" width="1280" height="200" xmlns="http://www.w3.org/2000/svg" xmlns:xlink="http://www.w3.org/1999/xlink" version="1.1"><path d="M0 76L160 107L320 88L480 24L640 77L800 90L960 54L1120 101L1280 101L1280 201L1120 201L960 201L800 201L640 201L480 201L320 201L160 201L0 201Z" fill="#003664"></path><path d="M0 132L160 87L320 62L480 95L640 114L800 71L960 99L1120 90L1280 66L1280 201L1120 201L960 201L800 201L640 201L480 201L320 201L160 201L0 201Z" fill="#002442"></path><path d="M0 95L160 101L320 88L480 93L640 115L800 153L960 126L1120 94L1280 134L1280 201L1120 201L960 201L800 201L640 201L480 201L320 201L160 201L0 201Z" fill="#001122"></path><path d="M0 157L160 127L320 140L480 148L640 133L800 146L960 133L1120 126L1280 135L1280 201L1120 201L960 201L800 201L640 201L480 201L320 201L160 201L0 201Z" fill="#000f1e"></path><path d="M0 167L160 161L320 166L480 181L640 184L800 148L960 150L1120 161L1280 179L1280 201L1120 201L960 201L800 201L640 201L480 201L320 201L160 201L0 201Z" fill="#000d1b"></path></svg>